<?xml version="1.0" encoding="utf-8"?>
<!-- Generator: Adobe Illustrator 21.1.0, SVG Export Plug-In . SVG Version: 6.00 Build 0)  -->
<svg version="1.1" xmlns="http://www.w3.org/2000/svg" xmlns:xlink="http://www.w3.org/1999/xlink" x="0px" y="0px" width="800px"
	 height="800px" viewBox="0 0 800 800" style="enable-background:new 0 0 800 800;" xml:space="preserve">
<style type="text/css">
	.st0{fill:#FFFFFF;stroke:#2B2B2B;}
	.st1{fill:none;stroke:#2B2B2B;}
	.st2{fill:none;stroke:#2B2B2B;stroke-width:2;}
	.st3{fill:none;stroke:#2B2B2B;stroke-width:4;}
</style>
<g id="Layer_6">
	<path class="st0" d="M47.9,547.4l115,57l115-57V433.3l-115-57L47.8,433L47.9,547.4z"/>
	<path class="st0" d="M278,433.3L162.9,490l-115-57"/>
	<path class="st0" d="M47.8,433"/>
	<path class="st0" d="M47.9,433"/>
	<path class="st0" d="M163,604.1V489.7"/>
</g>
<g id="Layer_8">
	<path class="st0" d="M507.9,547.7l115,57l115-57V433.6l-115-57l-115.1,56.7L507.9,547.7z"/>
	<path class="st0" d="M738,433.6l-115.1,56.7l-115-57"/>
	<path class="st0" d="M623,604.4V490.3"/>
</g>
<g id="Layer_10">
	<path class="st0" d="M278,547.4l115,57l115-57V433.3l-115-57L277.8,433L278,547.4z"/>
	<path class="st0" d="M393,604.1V489.7"/>
	<path class="st0" d="M508,433.3L392.9,490l-115-57"/>
</g>
<g id="Layer_13">
	<path class="st1" d="M278,433.4l115,57l115-57V319.3l-115-57L277.8,319L278,433.4z"/>
	<path class="st0" d="M393,490.1V375.7"/>
	<path class="st0" d="M508,319.3L392.9,376l-115-57"/>
</g>
<g id="Layer_9">
	<path class="st0" d="M393,604.4l115,57l115-57V490.3l-115-57L392.8,490L393,604.4z"/>
	<path class="st0" d="M623,490.3L507.9,547l-115-57"/>
	<path class="st0" d="M508,661.1V546.7"/>
</g>
<g id="Layer_7">
	<path class="st0" d="M162.9,604.4l115,57l115-57V490.3l-115-57L162.8,490L162.9,604.4z"/>
	<path class="st0" d="M393,490.3L277.9,547l-115-57"/>
	<path class="st0" d="M278,661.1V546.7"/>
</g>
<g id="Layer_11">
	<path class="st0" d="M278,319.4l115,57l115-57V205.3l-115-57L277.8,205L278,319.4z"/>
	<path class="st0" d="M508,205.3L392.9,262l-115-57"/>
	<path class="st0" d="M393,376.1V261.7"/>
</g>
<g id="Layer_4">
	<path class="st2" d="M736.1,433.4l-113.2-56.8L508,433.3l-115-57l-115.5,56.8l-114.5-56.8L49.9,433l0,0L280,547l113.1-56.7
		L507.9,547L736.1,433.4z"/>
</g>
<g id="Layer_5">
	<path class="st3" d="M508,661.1V546.7"/>
	<path class="st3" d="M280.4,204.7L393,148.3l115,57v114l0.5,113.9L623,490.3v114.1l-115,57l-115-57l0.1-342.3L280.4,204.7z"/>
	<line class="st3" x1="277.9" y1="204.7" x2="277.9" y2="432.7"/>
	<line class="st3" x1="393" y1="262.1" x2="508" y2="205.3"/>
</g>
<g id="Layer_12">
	<path class="st0" d="M508,433.3L392.8,490"/>
	<path class="st0" d="M393,490.3l-115-57"/>
	<path class="st0" d="M393,376.4l115-57"/>
	<path class="st0" d="M278,319.4l115,57"/>
</g>
</svg>
